<svg width="1280" height="478" viewBox="0 0 1280 478" fill="none" xmlns="http://www.w3.org/2000/svg">
<g clip-path="url(#clip0)">
<mask id="mask0" mask-type="alpha" maskUnits="userSpaceOnUse" x="0" y="0" width="2133" height="478">
<path d="M1280 205L0 478V0H2133V24L1280 205Z" fill="#C4C4C4"/>
</mask>
<g mask="url(#mask0)">
<g filter="url(#filter0_f)">
<path d="M2073.5 59.5L-16 516V-19H2073.5V59.5Z" fill="url(#paint0_radial)"/>
<path d="M2073.5 59.5L-16 516V-19H2073.5V59.5Z" fill="url(#paint1_angular)"/>
<path d="M2073.5 59.5L-16 516V-19H2073.5V59.5Z" fill="url(#paint2_radial)"/>
<path d="M2073.5 59.5L-16 516V-19H2073.5V59.5Z" fill="url(#paint3_radial)"/>
<path d="M2073.5 59.5L-16 516V-19H2073.5V59.5Z" fill="url(#paint4_radial)"/>
<path d="M2073.5 59.5L-16 516V-19H2073.5V59.5Z" fill="url(#paint5_radial)" fill-opacity="0.1"/>
<path d="M2073.5 59.5L-16 516V-19H2073.5V59.5Z" fill="url(#paint6_radial)"/>
<path d="M2073.5 59.5L-16 516V-19H2073.5V59.5Z" fill="url(#paint7_radial)"/>
<path d="M2073.5 59.5L-16 516V-19H2073.5V59.5Z" fill="url(#paint8_radial)"/>
<path d="M2073.5 59.5L-16 516V-19H2073.5V59.5Z" fill="url(#paint9_radial)"/>
<path d="M2073.5 59.5L-16 516V-19H2073.5V59.5Z" fill="url(#paint10_radial)" style="mix-blend-mode:hard-light"/>
</g>
<path d="M110.543 54H106.629L105.375 49.9219H99.1406L97.8984 54H93.9844L100.031 36.7969H104.473L110.543 54ZM104.52 46.875L102.574 40.6055C102.426 40.0898 102.324 39.707 102.27 39.457C102.012 40.4492 101.273 42.9219 100.055 46.875H104.52ZM111.926 52.3125C111.926 51.6641 112.102 51.1719 112.453 50.8359C112.805 50.5 113.309 50.332 113.965 50.332C114.629 50.332 115.137 50.5039 115.488 50.8477C115.848 51.1914 116.027 51.6797 116.027 52.3125C116.027 52.9375 115.844 53.4297 115.477 53.7891C115.117 54.1406 114.613 54.3164 113.965 54.3164C113.324 54.3164 112.824 54.1445 112.465 53.8008C112.105 53.4492 111.926 52.9531 111.926 52.3125ZM127.172 54H123.211L117.398 36.8672H121.066L124.289 47.0625C124.484 47.7266 124.672 48.4375 124.852 49.1953C125.031 49.9453 125.148 50.4922 125.203 50.8359C125.289 50.1094 125.582 48.8516 126.082 47.0625L129.328 36.8672H132.996L127.172 54ZM134.379 52.3125C134.379 51.6641 134.555 51.1719 134.906 50.8359C135.258 50.5 135.762 50.332 136.418 50.332C137.082 50.332 137.59 50.5039 137.941 50.8477C138.301 51.1914 138.48 51.6797 138.48 52.3125C138.48 52.9375 138.297 53.4297 137.93 53.7891C137.57 54.1406 137.066 54.3164 136.418 54.3164C135.777 54.3164 135.277 54.1445 134.918 53.8008C134.559 53.4492 134.379 52.9531 134.379 52.3125ZM153.27 39.8906H148.617V54H144.984V39.8906H140.332V36.8672H153.27V39.8906ZM166.16 53.3086C164.957 53.9258 163.422 54.2344 161.555 54.2344C159.445 54.2344 157.797 53.6523 156.609 52.4883C155.422 51.3242 154.828 49.6602 154.828 47.4961C154.828 45.332 155.375 43.6562 156.469 42.4688C157.562 41.2578 159.059 40.6523 160.957 40.6523C162.855 40.6523 164.316 41.1797 165.34 42.2344C166.379 43.2812 166.898 44.7383 166.898 46.6055V48.3398H158.449C158.488 49.3633 158.789 50.1602 159.352 50.7305C159.922 51.293 160.711 51.5742 161.719 51.5742C163.203 51.5742 164.684 51.2305 166.16 50.543V53.3086ZM163.547 45.9609C163.531 45.0859 163.301 44.4062 162.855 43.9219C162.418 43.4375 161.82 43.1953 161.062 43.1953C160.305 43.1953 159.707 43.4336 159.27 43.9102C158.84 44.3867 158.594 45.0703 158.531 45.9609H163.547ZM170.156 41.8125C171.672 41.0234 173.332 40.6289 175.137 40.6289C176.941 40.6289 178.305 41.0156 179.227 41.7891C180.156 42.5625 180.621 43.7227 180.621 45.2695V54H178.125L177.434 52.2188H177.34C176.738 52.9844 176.121 53.5117 175.488 53.8008C174.855 54.0898 174.023 54.2344 172.992 54.2344C171.742 54.2344 170.75 53.875 170.016 53.1562C169.297 52.4375 168.938 51.4023 168.938 50.0508C168.938 48.6992 169.418 47.6914 170.379 47.0273C171.34 46.3555 172.812 45.9844 174.797 45.9141L177.07 45.8438V45.2695C177.07 43.9414 176.391 43.2773 175.031 43.2773C173.984 43.2773 172.754 43.5938 171.34 44.2266L170.156 41.8125ZM172.605 50.1094C172.605 51.1172 173.184 51.6211 174.34 51.6211C175.176 51.6211 175.84 51.3828 176.332 50.9062C176.824 50.4297 177.07 49.7969 177.07 49.0078V47.9297L175.688 47.9766C174.648 48.0078 173.875 48.1953 173.367 48.5391C172.859 48.8828 172.605 49.4062 172.605 50.1094ZM199.699 40.6523C201.207 40.6523 202.336 41.0391 203.086 41.8125C203.836 42.5859 204.211 43.8008 204.211 45.457V54H200.625V46.3477C200.625 45.3945 200.465 44.6836 200.145 44.2148C199.824 43.7461 199.328 43.5117 198.656 43.5117C197.773 43.5117 197.117 43.8281 196.688 44.4609C196.258 45.0938 196.043 46.082 196.043 47.4258V54H192.469V46.3477C192.469 45.3945 192.309 44.6836 191.988 44.2148C191.668 43.7461 191.172 43.5117 190.5 43.5117C189.586 43.5117 188.922 43.8477 188.508 44.5195C188.094 45.1914 187.887 46.2969 187.887 47.8359V54H184.312V40.8984H187.043L187.523 42.5859H187.723C188.074 41.9766 188.582 41.5039 189.246 41.168C189.91 40.8242 190.672 40.6523 191.531 40.6523C193.5 40.6523 194.828 41.2969 195.516 42.5859H195.832C196.184 41.9766 196.699 41.5039 197.379 41.168C198.059 40.8242 198.832 40.6523 199.699 40.6523Z" fill="white"/>
<path d="M479.805 39.8438H473.559V44.2617H479.359V47.2266H473.559V54H469.984V36.8672H479.805V39.8438ZM488.559 40.6523C489.762 40.6523 490.836 40.9258 491.781 41.4727C492.734 42.0117 493.469 42.793 493.984 43.8164C494.508 44.832 494.77 45.9961 494.77 47.3086C494.77 47.3477 494.77 47.3867 494.77 47.4258C494.77 49.5586 494.207 51.2266 493.082 52.4297C491.957 53.6328 490.391 54.2344 488.383 54.2344C488.352 54.2344 488.316 54.2344 488.277 54.2344C487.074 54.2344 485.996 53.9609 485.043 53.4141C484.098 52.8594 483.363 52.0703 482.84 51.0469C482.324 50.0234 482.066 48.8555 482.066 47.543C482.066 47.5039 482.066 47.4648 482.066 47.4258C482.066 45.2852 482.625 43.625 483.742 42.4453C484.859 41.25 486.43 40.6523 488.453 40.6523C488.484 40.6523 488.52 40.6523 488.559 40.6523ZM490.469 44.4961C490.039 43.8555 489.352 43.5352 488.406 43.5352C487.461 43.5352 486.773 43.8516 486.344 44.4844C485.922 45.1172 485.711 46.0977 485.711 47.4258C485.711 48.7461 485.926 49.7344 486.355 50.3906C486.793 51.0391 487.48 51.3633 488.418 51.3633C489.363 51.3633 490.047 51.0391 490.469 50.3906C490.898 49.7422 491.113 48.7578 491.113 47.4375C491.113 46.1094 490.898 45.1289 490.469 44.4961ZM505.047 40.6523C505.539 40.6523 505.941 40.6875 506.254 40.7578L505.984 44.1094C505.703 44.0312 505.352 43.9922 504.93 43.9922C503.789 43.9922 502.898 44.2852 502.258 44.8711C501.625 45.457 501.309 46.2773 501.309 47.332V54H497.734V40.8984H500.441L500.969 43.1016H501.145C501.566 42.3516 502.113 41.7617 502.785 41.332C503.473 40.8789 504.227 40.6523 505.047 40.6523ZM530.348 54H525.73L518.277 41.0391H518.172C518.32 43.2656 518.395 44.8984 518.395 45.9375V54H515.148V36.8672H519.73L527.172 49.6992H527.254C527.137 47.4727 527.078 45.8984 527.078 44.9766V36.8672H530.348V54ZM534.742 41.8125C536.258 41.0234 537.918 40.6289 539.723 40.6289C541.527 40.6289 542.891 41.0156 543.812 41.7891C544.742 42.5625 545.207 43.7227 545.207 45.2695V54H542.711L542.02 52.2188H541.926C541.324 52.9844 540.707 53.5117 540.074 53.8008C539.441 54.0898 538.609 54.2344 537.578 54.2344C536.328 54.2344 535.336 53.875 534.602 53.1562C533.883 52.4375 533.523 51.4023 533.523 50.0508C533.523 48.6992 534.004 47.6914 534.965 47.0273C535.926 46.3555 537.398 45.9844 539.383 45.9141L541.656 45.8438V45.2695C541.656 43.9414 540.977 43.2773 539.617 43.2773C538.57 43.2773 537.34 43.5938 535.926 44.2266L534.742 41.8125ZM537.191 50.1094C537.191 51.1172 537.77 51.6211 538.926 51.6211C539.762 51.6211 540.426 51.3828 540.918 50.9062C541.41 50.4297 541.656 49.7969 541.656 49.0078V47.9297L540.273 47.9766C539.234 48.0078 538.461 48.1953 537.953 48.5391C537.445 48.8828 537.191 49.4062 537.191 50.1094ZM556.34 40.6523C557.855 40.6523 559.008 41.0664 559.797 41.8945C560.594 42.7148 560.992 43.9023 560.992 45.457V54H557.418V46.3477C557.418 45.3945 557.246 44.6836 556.902 44.2148C556.566 43.7461 556.035 43.5117 555.309 43.5117C554.309 43.5117 553.586 43.8477 553.141 44.5195C552.695 45.1914 552.473 46.2969 552.473 47.8359V54H548.898V40.8984H551.629L552.109 42.5859H552.309C552.699 41.9531 553.242 41.4727 553.938 41.1445C554.641 40.8164 555.441 40.6523 556.34 40.6523ZM570.355 40.6523C571.559 40.6523 572.633 40.9258 573.578 41.4727C574.531 42.0117 575.266 42.793 575.781 43.8164C576.305 44.832 576.566 45.9961 576.566 47.3086C576.566 47.3477 576.566 47.3867 576.566 47.4258C576.566 49.5586 576.004 51.2266 574.879 52.4297C573.754 53.6328 572.188 54.2344 570.18 54.2344C570.148 54.2344 570.113 54.2344 570.074 54.2344C568.871 54.2344 567.793 53.9609 566.84 53.4141C565.895 52.8594 565.16 52.0703 564.637 51.0469C564.121 50.0234 563.863 48.8555 563.863 47.543C563.863 47.5039 563.863 47.4648 563.863 47.4258C563.863 45.2852 564.422 43.625 565.539 42.4453C566.656 41.25 568.227 40.6523 570.25 40.6523C570.281 40.6523 570.316 40.6523 570.355 40.6523ZM572.266 44.4961C571.836 43.8555 571.148 43.5352 570.203 43.5352C569.258 43.5352 568.57 43.8516 568.141 44.4844C567.719 45.1172 567.508 46.0977 567.508 47.4258C567.508 48.7461 567.723 49.7344 568.152 50.3906C568.59 51.0391 569.277 51.3633 570.215 51.3633C571.16 51.3633 571.844 51.0391 572.266 50.3906C572.695 49.7422 572.91 48.7578 572.91 47.4375C572.91 46.1094 572.695 45.1289 572.266 44.4961ZM593.113 44.3789V53.2617C591.113 53.9102 589.082 54.2344 587.02 54.2344C584.441 54.2344 582.465 53.4766 581.09 51.9609C579.73 50.4375 579.051 48.2734 579.051 45.4688C579.051 42.6641 579.84 40.4883 581.418 38.9414C583.004 37.3945 585.199 36.6211 588.004 36.6211C589.762 36.6211 591.457 36.9727 593.09 37.6758L591.883 40.582C590.617 39.957 589.316 39.6445 587.98 39.6445C586.41 39.6445 585.152 40.1758 584.207 41.2383C583.262 42.293 582.789 43.7305 582.789 45.5508C582.789 47.3633 583.168 48.7617 583.926 49.7461C584.691 50.7227 585.801 51.2109 587.254 51.2109C587.988 51.2109 588.758 51.1328 589.562 50.9766V47.4023H586.316V44.3789H593.113ZM596.77 37.5234C596.77 36.3516 597.418 35.7656 598.715 35.7656C600.012 35.7656 600.66 36.3477 600.66 37.5117C600.66 38.0742 600.496 38.5078 600.168 38.8125C599.84 39.1172 599.355 39.2695 598.715 39.2695C597.418 39.2695 596.77 38.6875 596.77 37.5234ZM600.496 54H596.922V40.8984H600.496V54ZM604.609 41.8125C606.125 41.0234 607.785 40.6289 609.59 40.6289C611.395 40.6289 612.758 41.0156 613.68 41.7891C614.609 42.5625 615.074 43.7227 615.074 45.2695V54H612.578L611.887 52.2188H611.793C611.191 52.9844 610.574 53.5117 609.941 53.8008C609.309 54.0898 608.477 54.2344 607.445 54.2344C606.195 54.2344 605.203 53.875 604.469 53.1562C603.75 52.4375 603.391 51.4023 603.391 50.0508C603.391 48.6992 603.871 47.6914 604.832 47.0273C605.793 46.3555 607.266 45.9844 609.25 45.9141L611.523 45.8438V45.2695C611.523 43.9414 610.844 43.2773 609.484 43.2773C608.438 43.2773 607.207 43.5938 605.793 44.2266L604.609 41.8125ZM607.059 50.1094C607.059 51.1172 607.637 51.6211 608.793 51.6211C609.629 51.6211 610.293 51.3828 610.785 50.9062C611.277 50.4297 611.523 49.7969 611.523 49.0078V47.9297L610.141 47.9766C609.102 48.0078 608.328 48.1953 607.82 48.5391C607.312 48.8828 607.059 49.4062 607.059 50.1094ZM626.207 40.6523C627.723 40.6523 628.875 41.0664 629.664 41.8945C630.461 42.7148 630.859 43.9023 630.859 45.457V54H627.285V46.3477C627.285 45.3945 627.113 44.6836 626.77 44.2148C626.434 43.7461 625.902 43.5117 625.176 43.5117C624.176 43.5117 623.453 43.8477 623.008 44.5195C622.562 45.1914 622.34 46.2969 622.34 47.8359V54H618.766V40.8984H621.496L621.977 42.5859H622.176C622.566 41.9531 623.109 41.4727 623.805 41.1445C624.508 40.8164 625.309 40.6523 626.207 40.6523ZM638.5 40.8984H642.168V43.582H638.5V49.8984C638.5 50.3906 638.637 50.7617 638.91 51.0117C639.191 51.2617 639.605 51.3867 640.152 51.3867C640.699 51.3867 641.418 51.25 642.309 50.9766V53.6367C641.418 54.0352 640.293 54.2344 638.934 54.2344C637.582 54.2344 636.574 53.8789 635.91 53.168C635.254 52.4492 634.926 51.3594 634.926 49.8984V43.582H633.215V42.0703L635.184 40.875L636.215 38.1094H638.5V40.8984ZM665.43 36.8672V47.9531C665.43 47.9766 665.43 48 665.43 48.0234C665.43 49.8984 664.797 51.4023 663.531 52.5352C662.266 53.668 660.574 54.2344 658.457 54.2344C658.418 54.2344 658.375 54.2344 658.328 54.2344C656.125 54.2344 654.414 53.668 653.195 52.5352C651.977 51.4023 651.367 49.8594 651.367 47.9062V36.8672H654.988V47.3555C654.988 48.6836 655.258 49.6562 655.797 50.2734C656.336 50.8828 657.203 51.1875 658.398 51.1875C659.594 51.1875 660.461 50.8789 661 50.2617C661.539 49.6445 661.809 48.668 661.809 47.332V36.8672H665.43ZM673.258 54H669.625V36.8672H673.258V54ZM678.824 54H675.578L681.965 36.8672H685.211L678.824 54ZM701.43 36.8672V47.9531C701.43 47.9766 701.43 48 701.43 48.0234C701.43 49.8984 700.797 51.4023 699.531 52.5352C698.266 53.668 696.574 54.2344 694.457 54.2344C694.418 54.2344 694.375 54.2344 694.328 54.2344C692.125 54.2344 690.414 53.668 689.195 52.5352C687.977 51.4023 687.367 49.8594 687.367 47.9062V36.8672H690.988V47.3555C690.988 48.6836 691.258 49.6562 691.797 50.2734C692.336 50.8828 693.203 51.1875 694.398 51.1875C695.594 51.1875 696.461 50.8789 697 50.2617C697.539 49.6445 697.809 48.668 697.809 47.332V36.8672H701.43ZM713.688 45.3633L719.477 54H715.328L711.344 47.5195L707.359 54H703.469L709.152 45.1641L703.832 36.8672H707.84L711.531 43.0312L715.141 36.8672H719.066L713.688 45.3633ZM741.906 54H738.285V46.6055H731.5V54H727.867V36.8672H731.5V43.582H738.285V36.8672H741.906V54ZM746.312 41.8125C747.828 41.0234 749.488 40.6289 751.293 40.6289C753.098 40.6289 754.461 41.0156 755.383 41.7891C756.312 42.5625 756.777 43.7227 756.777 45.2695V54H754.281L753.59 52.2188H753.496C752.895 52.9844 752.277 53.5117 751.645 53.8008C751.012 54.0898 750.18 54.2344 749.148 54.2344C747.898 54.2344 746.906 53.875 746.172 53.1562C745.453 52.4375 745.094 51.4023 745.094 50.0508C745.094 48.6992 745.574 47.6914 746.535 47.0273C747.496 46.3555 748.969 45.9844 750.953 45.9141L753.227 45.8438V45.2695C753.227 43.9414 752.547 43.2773 751.188 43.2773C750.141 43.2773 748.91 43.5938 747.496 44.2266L746.312 41.8125ZM748.762 50.1094C748.762 51.1172 749.34 51.6211 750.496 51.6211C751.332 51.6211 751.996 51.3828 752.488 50.9062C752.98 50.4297 753.227 49.7969 753.227 49.0078V47.9297L751.844 47.9766C750.805 48.0078 750.031 48.1953 749.523 48.5391C749.016 48.8828 748.762 49.4062 748.762 50.1094ZM765.789 54.2344C761.711 54.2344 759.672 51.9961 759.672 47.5195C759.672 45.3008 760.227 43.6016 761.336 42.4219C762.445 41.2422 764.035 40.6523 766.105 40.6523C767.629 40.6523 768.984 40.9492 770.172 41.543L769.129 44.3086C767.863 43.793 766.855 43.5352 766.105 43.5352C764.246 43.5352 763.316 44.8359 763.316 47.4375C763.316 50.0391 764.246 51.3398 766.105 51.3398C767.418 51.3398 768.641 50.9609 769.773 50.2031V53.2617C769.164 53.6523 768.578 53.9062 768.016 54.0234C767.43 54.1641 766.688 54.2344 765.789 54.2344ZM776.395 54H772.82V35.7656H776.395V43.8984L776.207 46.875H776.254L777.812 44.8828L781.48 40.8984H785.512L780.309 46.582L785.828 54H781.703L777.93 48.6914L776.395 49.9219V54ZM788.055 41.8125C789.57 41.0234 791.23 40.6289 793.035 40.6289C794.84 40.6289 796.203 41.0156 797.125 41.7891C798.055 42.5625 798.52 43.7227 798.52 45.2695V54H796.023L795.332 52.2188H795.238C794.637 52.9844 794.02 53.5117 793.387 53.8008C792.754 54.0898 791.922 54.2344 790.891 54.2344C789.641 54.2344 788.648 53.875 787.914 53.1562C787.195 52.4375 786.836 51.4023 786.836 50.0508C786.836 48.6992 787.316 47.6914 788.277 47.0273C789.238 46.3555 790.711 45.9844 792.695 45.9141L794.969 45.8438V45.2695C794.969 43.9414 794.289 43.2773 792.93 43.2773C791.883 43.2773 790.652 43.5938 789.238 44.2266L788.055 41.8125ZM790.504 50.1094C790.504 51.1172 791.082 51.6211 792.238 51.6211C793.074 51.6211 793.738 51.3828 794.23 50.9062C794.723 50.4297 794.969 49.7969 794.969 49.0078V47.9297L793.586 47.9766C792.547 48.0078 791.773 48.1953 791.266 48.5391C790.758 48.8828 790.504 49.4062 790.504 50.1094ZM806.172 40.8984H809.84V43.582H806.172V49.8984C806.172 50.3906 806.309 50.7617 806.582 51.0117C806.863 51.2617 807.277 51.3867 807.824 51.3867C808.371 51.3867 809.09 51.25 809.98 50.9766V53.6367C809.09 54.0352 807.965 54.2344 806.605 54.2344C805.254 54.2344 804.246 53.8789 803.582 53.168C802.926 52.4492 802.598 51.3594 802.598 49.8984V43.582H800.887V42.0703L802.855 40.875L803.887 38.1094H806.172V40.8984ZM816.215 35.7656V39.4805C816.215 39.8477 816.188 40.5273 816.133 41.5195L816.051 42.5859H816.238C817.035 41.2969 818.301 40.6523 820.035 40.6523C821.566 40.6523 822.73 41.0664 823.527 41.8945C824.332 42.7227 824.734 43.9102 824.734 45.457V54H821.16V46.3477C821.16 44.457 820.457 43.5117 819.051 43.5117C818.051 43.5117 817.328 43.8516 816.883 44.5312C816.438 45.2109 816.215 46.3125 816.215 47.8359V54H812.641V35.7656H816.215ZM834.098 40.6523C835.301 40.6523 836.375 40.9258 837.32 41.4727C838.273 42.0117 839.008 42.793 839.523 43.8164C840.047 44.832 840.309 45.9961 840.309 47.3086C840.309 47.3477 840.309 47.3867 840.309 47.4258C840.309 49.5586 839.746 51.2266 838.621 52.4297C837.496 53.6328 835.93 54.2344 833.922 54.2344C833.891 54.2344 833.855 54.2344 833.816 54.2344C832.613 54.2344 831.535 53.9609 830.582 53.4141C829.637 52.8594 828.902 52.0703 828.379 51.0469C827.863 50.0234 827.605 48.8555 827.605 47.543C827.605 47.5039 827.605 47.4648 827.605 47.4258C827.605 45.2852 828.164 43.625 829.281 42.4453C830.398 41.25 831.969 40.6523 833.992 40.6523C834.023 40.6523 834.059 40.6523 834.098 40.6523ZM836.008 44.4961C835.578 43.8555 834.891 43.5352 833.945 43.5352C833 43.5352 832.312 43.8516 831.883 44.4844C831.461 45.1172 831.25 46.0977 831.25 47.4258C831.25 48.7461 831.465 49.7344 831.895 50.3906C832.332 51.0391 833.02 51.3633 833.957 51.3633C834.902 51.3633 835.586 51.0391 836.008 50.3906C836.438 49.7422 836.652 48.7578 836.652 47.4375C836.652 46.1094 836.438 45.1289 836.008 44.4961ZM850.715 40.6523C852.23 40.6523 853.383 41.0664 854.172 41.8945C854.969 42.7148 855.367 43.9023 855.367 45.457V54H851.793V46.3477C851.793 45.3945 851.621 44.6836 851.277 44.2148C850.941 43.7461 850.41 43.5117 849.684 43.5117C848.684 43.5117 847.961 43.8477 847.516 44.5195C847.07 45.1914 846.848 46.2969 846.848 47.8359V54H843.273V40.8984H846.004L846.484 42.5859H846.684C847.074 41.9531 847.617 41.4727 848.312 41.1445C849.016 40.8164 849.816 40.6523 850.715 40.6523Z" fill="white"/>
</g>
<defs>
<filter id="filter0_f" x="-40" y="-43" width="2137.5" height="583" filterUnits="userSpaceOnUse" color-interpolation-filters="sRGB">
<feFlood flood-opacity="0" result="BackgroundImageFix"/>
<feBlend mode="normal" in="SourceGraphic" in2="BackgroundImageFix" result="shape"/>
<feGaussianBlur stdDeviation="12" result="effect1_foregroundBlur"/>
</filter>
<radialGradient id="paint0_radial" cx="0" cy="0" r="1" gradientUnits="userSpaceOnUse" gradientTransform="translate(430.047 154.483) rotate(70.1596) scale(354.583 783.03)">
<stop stop-color="#A960EE"/>
<stop offset="1" stop-color="#C788CB"/>
</radialGradient>
<radialGradient id="paint1_angular" cx="0" cy="0" r="1" gradientUnits="userSpaceOnUse" gradientTransform="translate(445.923 197.015) rotate(-83.0619) scale(105.985 225.777)">
<stop offset="0.495182" stop-color="#90E0FF"/>
<stop offset="1" stop-color="#A960EE" stop-opacity="0"/>
</radialGradient>
<radialGradient id="paint2_radial" cx="0" cy="0" r="1" gradientUnits="userSpaceOnUse" gradientTransform="translate(95.6398 191.418) rotate(108.981) scale(343.244 552.881)">
<stop offset="0.411761" stop-color="#FFCB57"/>
<stop offset="0.719902" stop-color="#B778E1" stop-opacity="0"/>
</radialGradient>
<radialGradient id="paint3_radial" cx="0" cy="0" r="1" gradientUnits="userSpaceOnUse" gradientTransform="translate(-16 516) rotate(-13.2261) scale(572.357 339.043)">
<stop offset="0.192069" stop-color="#FF333D"/>
<stop offset="0.545432" stop-color="#B778E0" stop-opacity="0"/>
</radialGradient>
<radialGradient id="paint4_radial" cx="0" cy="0" r="1" gradientUnits="userSpaceOnUse" gradientTransform="translate(941.645 76.136) rotate(-10.224) scale(433.761 189.829)">
<stop offset="0.317029" stop-color="#FFCB57"/>
<stop offset="1" stop-color="#EE755C" stop-opacity="0"/>
</radialGradient>
<radialGradient id="paint5_radial" cx="0" cy="0" r="1" gradientUnits="userSpaceOnUse" gradientTransform="translate(387.03 287.114) rotate(77.977) scale(223.72 598.265)">
<stop offset="0.507408" stop-color="#90E0FF"/>
<stop offset="1" stop-color="#A960EE" stop-opacity="0"/>
</radialGradient>
<radialGradient id="paint6_radial" cx="0" cy="0" r="1" gradientUnits="userSpaceOnUse" gradientTransform="translate(143.843 435.646) rotate(-161.493) scale(240.086 130.408)">
<stop offset="0.259592" stop-color="#A960EE"/>
<stop offset="1" stop-color="#FF333D" stop-opacity="0"/>
</radialGradient>
<radialGradient id="paint7_radial" cx="0" cy="0" r="1" gradientUnits="userSpaceOnUse" gradientTransform="translate(393.332 285.307) rotate(80.2593) scale(263.523 421.089)">
<stop stop-color="#B8EBFF"/>
<stop offset="0.605789" stop-color="#90E0FF"/>
<stop offset="0.832381" stop-color="#A960EE" stop-opacity="0"/>
</radialGradient>
<radialGradient id="paint8_radial" cx="0" cy="0" r="1" gradientUnits="userSpaceOnUse" gradientTransform="translate(121.551 340.777) rotate(3.51014) scale(279.42 123.37)">
<stop stop-color="#AFE9FF"/>
<stop offset="0.414475" stop-color="#90E0FF"/>
<stop offset="1" stop-color="#90E0FF" stop-opacity="0"/>
</radialGradient>
<radialGradient id="paint9_radial" cx="0" cy="0" r="1" gradientUnits="userSpaceOnUse" gradientTransform="translate(1168 248.5) rotate(173.282) scale(735.605 179.465)">
<stop offset="0.447917" stop-color="#FF333D"/>
<stop offset="0.831859" stop-color="#A960EE" stop-opacity="0"/>
</radialGradient>
<radialGradient id="paint10_radial" cx="0" cy="0" r="1" gradientUnits="userSpaceOnUse" gradientTransform="translate(1173.63 67.182) rotate(65.686) scale(391.79 1750.92)">
<stop offset="0.166667" stop-color="#EE755C"/>
<stop offset="0.483429" stop-color="#90E0FF" stop-opacity="0"/>
</radialGradient>
<clipPath id="clip0">
<rect width="2048" height="478" fill="white"/>
</clipPath>
</defs>
</svg>
