<svg width="94" height="33" viewBox="0 0 94 33" fill="none" xmlns="http://www.w3.org/2000/svg" xmlns:xlink="http://www.w3.org/1999/xlink">
<g clip-path="url(#clip0)">
<path d="M0 16.5C0 7.3873 7.3873 0 16.5 0H77.5C86.6127 0 94 7.3873 94 16.5V16.5C94 25.6127 86.6127 33 77.5 33H16.5C7.3873 33 0 25.6127 0 16.5V16.5Z" fill="#11253E"/>
<path d="M24.6344 12.2197H27.5988C28.7287 12.2197 29.5856 12.4631 30.1696 12.9497C30.7536 13.4364 31.0455 14.1706 31.0455 15.1523C31.0455 16.1299 30.7324 16.8831 30.1061 17.4121C29.4798 17.9368 28.5932 18.1992 27.4464 18.1992H26.6022V21.5H24.6344V12.2197ZM26.6022 13.832V16.5869H27.2496C28.4557 16.5869 29.0587 16.1214 29.0587 15.1904C29.0587 14.7249 28.9318 14.3822 28.6779 14.1621C28.4282 13.9421 28.0346 13.832 27.4972 13.832H26.6022ZM36.7361 14.27C37.0027 14.27 37.2206 14.2891 37.3899 14.3271L37.2439 16.1426C37.0916 16.1003 36.9011 16.0791 36.6726 16.0791C36.0548 16.0791 35.5724 16.2378 35.2254 16.5552C34.8826 16.8726 34.7112 17.3169 34.7112 17.8882V21.5H32.7752V14.4033H34.2415L34.5271 15.5967H34.6223C34.8508 15.1904 35.1471 14.8709 35.511 14.6382C35.8834 14.3927 36.2918 14.27 36.7361 14.27ZM44.515 21.1255C43.8633 21.4598 43.0318 21.627 42.0204 21.627C40.8778 21.627 39.9849 21.3117 39.3417 20.6812C38.6985 20.0506 38.3768 19.1493 38.3768 17.9771C38.3768 16.8049 38.6731 15.8971 39.2655 15.2539C39.858 14.598 40.6683 14.27 41.6967 14.27C42.725 14.27 43.5163 14.5557 44.0707 15.127C44.6335 15.694 44.9149 16.4832 44.9149 17.4946V18.4341H40.3383C40.3594 18.9884 40.5223 19.4201 40.827 19.729C41.136 20.0337 41.5634 20.186 42.1093 20.186C42.9133 20.186 43.7152 19.9998 44.515 19.6274V21.1255ZM43.0995 17.1455C43.091 16.6715 42.9662 16.3034 42.725 16.041C42.488 15.7786 42.1643 15.6475 41.7538 15.6475C41.3433 15.6475 41.0196 15.7765 40.7826 16.0347C40.5499 16.2928 40.4166 16.6631 40.3827 17.1455H43.0995ZM52.8208 21.5H51.3354L50.9609 20.5796H50.8784C50.4425 21.2778 49.7718 21.627 48.8662 21.627C48.0283 21.627 47.3724 21.3053 46.8984 20.6621C46.4245 20.0146 46.1875 19.1133 46.1875 17.958C46.1875 16.7985 46.4287 15.895 46.9111 15.2476C47.3978 14.5959 48.077 14.27 48.9487 14.27C49.8205 14.27 50.4912 14.6191 50.9609 15.3174H51.0244C50.9271 14.7715 50.8784 14.2975 50.8784 13.8955V11.623H52.8208V21.5ZM51.0117 17.9771C51.0117 17.2196 50.8932 16.6758 50.6562 16.3457C50.4193 16.0114 50.0384 15.8442 49.5137 15.8442C49.0778 15.8442 48.7414 16.0283 48.5044 16.3965C48.2674 16.7646 48.1489 17.2957 48.1489 17.9897C48.1489 18.6795 48.2674 19.2021 48.5044 19.5576C48.7456 19.9089 49.1032 20.0845 49.5771 20.0845C50.0511 20.0845 50.4045 19.9427 50.6372 19.6592C50.87 19.3714 50.9948 18.8805 51.0117 18.1865V17.9771ZM54.8932 12.5752C54.8932 11.9404 55.2444 11.623 55.9469 11.623C56.6494 11.623 57.0006 11.9383 57.0006 12.5688C57.0006 12.8735 56.9117 13.1084 56.734 13.2734C56.5563 13.4385 56.2939 13.521 55.9469 13.521C55.2444 13.521 54.8932 13.2057 54.8932 12.5752ZM56.9117 21.5H54.9757V14.4033H56.9117V21.5ZM61.9612 21.627C59.7522 21.627 58.6477 20.4146 58.6477 17.9897C58.6477 16.7879 58.9482 15.8675 59.5491 15.2285C60.15 14.5895 61.0111 14.27 62.1326 14.27C62.9578 14.27 63.692 14.4308 64.3352 14.7524L63.7703 16.2505C63.0847 15.9712 62.5388 15.8315 62.1326 15.8315C61.1254 15.8315 60.6218 16.5361 60.6218 17.9453C60.6218 19.3545 61.1254 20.0591 62.1326 20.0591C62.8435 20.0591 63.5058 19.8538 64.1194 19.4434V21.1001C63.7893 21.3117 63.4719 21.4492 63.1672 21.5127C62.8498 21.5889 62.4478 21.627 61.9612 21.627ZM68.0453 14.4033H70.0321V15.8569H68.0453V19.2783C68.0453 19.5449 68.1193 19.7459 68.2674 19.8813C68.4198 20.0168 68.6441 20.0845 68.9403 20.0845C69.2365 20.0845 69.6258 20.0104 70.1083 19.8623V21.3032C69.6258 21.519 69.0165 21.627 68.2801 21.627C67.548 21.627 67.0021 21.4344 66.6424 21.0493C66.287 20.66 66.1092 20.0697 66.1092 19.2783V15.8569H65.1825V15.0381L66.2489 14.3906L66.8075 12.8926H68.0453V14.4033Z" fill="white"/>
</g>
<defs>
<clipPath id="clip0">
<path d="M0 16.5C0 7.3873 7.3873 0 16.5 0H77.5C86.6127 0 94 7.3873 94 16.5V16.5C94 25.6127 86.6127 33 77.5 33H16.5C7.3873 33 0 25.6127 0 16.5V16.5Z" fill="white"/>
</clipPath>
</defs>
</svg>
