<svg width="109" height="33" viewBox="0 0 109 33" fill="none" xmlns="http://www.w3.org/2000/svg">
<path d="M0 16.5C0 7.3873 7.3873 0 16.5 0H91.6213C100.734 0 108.121 7.3873 108.121 16.5V16.5C108.121 25.6127 100.734 33 91.6213 33H16.5C7.3873 33 0 25.6127 0 16.5V16.5Z" fill="#11253E"/>
<path d="M21.2656 13.8574H18.7456V21.5H16.7778V13.8574H14.2578V12.2197H21.2656V13.8574ZM26.6324 14.27C26.899 14.27 27.1169 14.2891 27.2862 14.3271L27.1402 16.1426C26.9879 16.1003 26.7974 16.0791 26.5689 16.0791C25.9511 16.0791 25.4687 16.2378 25.1217 16.5552C24.7789 16.8726 24.6075 17.3169 24.6075 17.8882V21.5H22.6715V14.4033H24.1378L24.4234 15.5967H24.5186C24.7471 15.1904 25.0434 14.8709 25.4073 14.6382C25.7797 14.3927 26.1881 14.27 26.6324 14.27ZM29.1174 24.623C28.7958 24.623 28.4678 24.5871 28.1335 24.5151V22.979C28.3578 23.034 28.6117 23.0615 28.8952 23.0615C29.6104 23.0615 30.1097 22.6405 30.3933 21.7983L30.5075 21.4492L27.6892 14.4033H29.8093L31.1486 18.396C31.2587 18.7388 31.3369 19.1493 31.3835 19.6274H31.4216C31.4639 19.2127 31.5549 18.8022 31.6945 18.396L33.0085 14.4033H35.0842L32.0817 22.4077C31.8067 23.1398 31.4152 23.6921 30.9074 24.0645C30.4038 24.4368 29.8072 24.623 29.1174 24.623ZM46.2558 21.5H44.7705L44.5102 20.5923H44.4086C44.2013 20.9224 43.9072 21.1784 43.5263 21.3604C43.1455 21.5381 42.7117 21.627 42.225 21.627C41.3956 21.627 40.7672 21.4048 40.3398 20.9604C39.9166 20.5161 39.705 19.8729 39.705 19.0308V14.4033H41.6411V18.5483C41.6411 19.0646 41.732 19.4497 41.914 19.7036C42.1002 19.9575 42.3901 20.0845 42.7836 20.0845C43.3253 20.0845 43.7167 19.9046 43.958 19.5449C44.1992 19.1852 44.3198 18.5843 44.3198 17.7422V14.4033H46.2558V21.5ZM50.4039 20.2114C51.1063 20.2114 51.4576 20.0083 51.4576 19.6021C51.4576 19.3947 51.3645 19.2297 51.1783 19.1069C50.9963 18.9842 50.5774 18.7769 49.9214 18.4849C49.3755 18.2563 48.9735 18.0448 48.7154 17.8501C48.4615 17.6554 48.2753 17.4333 48.1568 17.1836C48.0425 16.9297 47.9854 16.6187 47.9854 16.2505C47.9854 15.62 48.2287 15.1333 48.7154 14.7905C49.2063 14.4435 49.8918 14.27 50.772 14.27C51.6522 14.27 52.4922 14.4562 53.2921 14.8286L52.7081 16.2251C52.2976 16.0516 51.9442 15.9225 51.648 15.8379C51.356 15.749 51.0619 15.7046 50.7657 15.7046C50.1944 15.7046 49.9088 15.859 49.9088 16.168C49.9088 16.3415 50.0019 16.4938 50.188 16.625C50.3742 16.752 50.7593 16.9318 51.3433 17.1646C51.9315 17.3973 52.3547 17.6131 52.6129 17.812C53.1164 18.1929 53.3682 18.7345 53.3682 19.437C53.3682 20.1395 53.1143 20.6812 52.6065 21.062C52.0987 21.4386 51.3645 21.627 50.4039 21.627C49.4433 21.627 48.6392 21.4894 47.9918 21.2144V19.6147C48.3557 19.784 48.7619 19.9258 49.2105 20.04C49.6633 20.1543 50.0611 20.2114 50.4039 20.2114ZM61.5945 14.27C62.2462 14.27 62.8281 14.4181 63.3401 14.7144C63.8564 15.0063 64.2542 15.4295 64.5335 15.9839C64.817 16.534 64.9588 17.1646 64.9588 17.8755C64.9588 17.8966 64.9588 17.9178 64.9588 17.939C64.9588 19.0942 64.6541 19.9977 64.0447 20.6494C63.4354 21.3011 62.5869 21.627 61.4993 21.627C61.4824 21.627 61.4633 21.627 61.4422 21.627C60.7905 21.627 60.2065 21.4788 59.6902 21.1826C59.1782 20.8822 58.7804 20.4548 58.4969 19.9004C58.2176 19.346 58.0779 18.7134 58.0779 18.0024C58.0779 17.9813 58.0779 17.9601 58.0779 17.939C58.0779 16.7795 58.3805 15.8802 58.9856 15.2412C59.5908 14.5938 60.4414 14.27 61.5374 14.27C61.5543 14.27 61.5734 14.27 61.5945 14.27ZM62.6292 16.3521C62.3965 16.005 62.0241 15.8315 61.512 15.8315C61 15.8315 60.6276 16.0029 60.3948 16.3457C60.1663 16.6885 60.0521 17.2196 60.0521 17.939C60.0521 18.6541 60.1684 19.1895 60.4012 19.5449C60.6382 19.8962 61.0105 20.0718 61.5184 20.0718C62.0304 20.0718 62.4007 19.8962 62.6292 19.5449C62.8619 19.1937 62.9783 18.6605 62.9783 17.9453C62.9783 17.2259 62.8619 16.6948 62.6292 16.3521ZM73.2074 21.5H71.7221L71.4618 20.5923H71.3603C71.1529 20.9224 70.8588 21.1784 70.478 21.3604C70.0971 21.5381 69.6633 21.627 69.1767 21.627C68.3473 21.627 67.7188 21.4048 67.2914 20.9604C66.8683 20.5161 66.6567 19.8729 66.6567 19.0308V14.4033H68.5927V18.5483C68.5927 19.0646 68.6837 19.4497 68.8656 19.7036C69.0518 19.9575 69.3417 20.0845 69.7353 20.0845C70.2769 20.0845 70.6684 19.9046 70.9096 19.5449C71.1508 19.1852 71.2714 18.5843 71.2714 17.7422V14.4033H73.2074V21.5ZM77.5142 14.4033H79.501V15.8569H77.5142V19.2783C77.5142 19.5449 77.5883 19.7459 77.7364 19.8813C77.8887 20.0168 78.113 20.0845 78.4092 20.0845C78.7054 20.0845 79.0948 20.0104 79.5772 19.8623V21.3032C79.0948 21.519 78.4854 21.627 77.7491 21.627C77.017 21.627 76.4711 21.4344 76.1114 21.0493C75.7559 20.66 75.5782 20.0697 75.5782 19.2783V15.8569H74.6514V15.0381L75.7178 14.3906L76.2764 12.8926H77.5142V14.4033Z" fill="white"/>
<path fill-rule="evenodd" clip-rule="evenodd" d="M92.2929 16.5L89 13.2071L90.4142 11.7929L95.1213 16.5L90.4142 21.2071L89 19.7929L92.2929 16.5Z" fill="white"/>
</svg>
