<svg width="94" height="33" viewBox="0 0 94 33" fill="none" xmlns="http://www.w3.org/2000/svg">
<g clip-path="url(#clip0)">
<path d="M0 16.5C0 7.3873 7.3873 0 16.5 0H77.5C86.6127 0 94 7.3873 94 16.5V16.5C94 25.6127 86.6127 33 77.5 33H16.5C7.3873 33 0 25.6127 0 16.5V16.5Z" fill="#11253E"/>
<path d="M23.8506 13.8574H21.3306V21.5H19.3628V13.8574H16.8428V12.2197H23.8506V13.8574ZM29.2174 14.27C29.484 14.27 29.702 14.2891 29.8712 14.3271L29.7252 16.1426C29.5729 16.1003 29.3825 16.0791 29.1539 16.0791C28.5361 16.0791 28.0537 16.2378 27.7067 16.5552C27.3639 16.8726 27.1925 17.3169 27.1925 17.8882V21.5H25.2565V14.4033H26.7228L27.0084 15.5967H27.1037C27.3322 15.1904 27.6284 14.8709 27.9923 14.6382C28.3647 14.3927 28.7731 14.27 29.2174 14.27ZM31.7024 24.623C31.3808 24.623 31.0528 24.5871 30.7185 24.5151V22.979C30.9428 23.034 31.1967 23.0615 31.4802 23.0615C32.1954 23.0615 32.6948 22.6405 32.9783 21.7983L33.0925 21.4492L30.2742 14.4033H32.3943L33.7337 18.396C33.8437 18.7388 33.922 19.1493 33.9685 19.6274H34.0066C34.0489 19.2127 34.1399 18.8022 34.2796 18.396L35.5935 14.4033H37.6692L34.6668 22.4077C34.3917 23.1398 34.0003 23.6921 33.4924 24.0645C32.9889 24.4368 32.3922 24.623 31.7024 24.623ZM42.5186 14.8984C43.3395 14.471 44.2388 14.2573 45.2163 14.2573C46.1938 14.2573 46.9323 14.4668 47.4316 14.8857C47.9352 15.3047 48.187 15.9331 48.187 16.771V21.5H46.835L46.4604 20.5352H46.4097C46.0838 20.9499 45.7495 21.2355 45.4067 21.3921C45.064 21.5487 44.6133 21.627 44.0547 21.627C43.3776 21.627 42.8402 21.4323 42.4424 21.043C42.0531 20.6536 41.8584 20.0929 41.8584 19.3608C41.8584 18.6287 42.1187 18.0828 42.6392 17.7231C43.1597 17.3592 43.9574 17.1582 45.0322 17.1201L46.2637 17.082V16.771C46.2637 16.0516 45.8955 15.6919 45.1592 15.6919C44.5921 15.6919 43.9256 15.8633 43.1597 16.2061L42.5186 14.8984ZM43.8452 19.3926C43.8452 19.9385 44.1584 20.2114 44.7847 20.2114C45.2375 20.2114 45.5972 20.0824 45.8638 19.8242C46.1304 19.5661 46.2637 19.2233 46.2637 18.7959V18.2119L45.5146 18.2373C44.9518 18.2542 44.5329 18.3558 44.2578 18.542C43.9827 18.7282 43.8452 19.0117 43.8452 19.3926ZM52.8112 20.0337H54.0172C54.7959 20.0337 55.3883 20.203 55.7946 20.5415C56.205 20.8758 56.4103 21.3646 56.4103 22.0078C56.4103 22.8372 56.0633 23.4805 55.3693 23.9375C54.6795 24.3945 53.6871 24.623 52.3922 24.623C51.4062 24.623 50.6508 24.4517 50.1261 24.1089C49.6014 23.7661 49.339 23.2816 49.339 22.6553C49.339 22.2279 49.4723 21.8703 49.7389 21.5825C50.0055 21.2948 50.3969 21.0895 50.9132 20.9668C50.7185 20.8906 50.545 20.7531 50.3927 20.5542C50.2446 20.3553 50.1705 20.1395 50.1705 19.9067C50.1705 19.6698 50.2425 19.4624 50.3863 19.2847C50.5345 19.1027 50.7672 18.9186 51.0846 18.7324C50.708 18.5674 50.4117 18.3071 50.1959 17.9517C49.9801 17.5962 49.8722 17.1794 49.8722 16.7012C49.8722 15.9268 50.124 15.328 50.6276 14.9048C51.1311 14.4816 51.8505 14.27 52.7858 14.27C52.9847 14.27 53.2195 14.2891 53.4904 14.3271C53.7654 14.361 53.941 14.3864 54.0172 14.4033H56.4928V15.3872L55.382 15.6729C55.5851 15.9987 55.6866 16.3542 55.6866 16.7393C55.6866 17.501 55.4222 18.0955 54.8932 18.5229C54.3642 18.9461 53.6258 19.1577 52.6779 19.1577L52.3287 19.1387L52.0431 19.1069C51.8442 19.2593 51.7447 19.4285 51.7447 19.6147C51.7447 19.894 52.1002 20.0337 52.8112 20.0337ZM52.7858 15.4443C52.0748 15.4443 51.7194 15.8717 51.7194 16.7266C51.7194 17.1201 51.8082 17.4269 51.986 17.647C52.1679 17.867 52.4345 17.9771 52.7858 17.9771C53.1412 17.9771 53.4057 17.8691 53.5792 17.6533C53.7527 17.4333 53.8395 17.1243 53.8395 16.7266C53.8395 15.8717 53.4882 15.4443 52.7858 15.4443ZM53.2682 21.5889H52.2653C51.9098 21.5889 51.6114 21.6714 51.3702 21.8364C51.1333 22.0099 51.0148 22.23 51.0148 22.4966C51.0148 22.7674 51.1438 22.979 51.402 23.1313C51.6601 23.2837 52.0177 23.3599 52.4747 23.3599C53.1687 23.3599 53.7125 23.2646 54.1061 23.0742C54.4996 22.8838 54.6964 22.6235 54.6964 22.2935C54.6964 22.0353 54.5821 21.8534 54.3536 21.7476C54.1294 21.6418 53.7675 21.5889 53.2682 21.5889ZM57.9875 14.8984C58.8085 14.471 59.7078 14.2573 60.6853 14.2573C61.6628 14.2573 62.4013 14.4668 62.9006 14.8857C63.4042 15.3047 63.656 15.9331 63.656 16.771V21.5H62.3039L61.9294 20.5352H61.8787C61.5528 20.9499 61.2185 21.2355 60.8757 21.3921C60.5329 21.5487 60.0823 21.627 59.5237 21.627C58.8466 21.627 58.3092 21.4323 57.9114 21.043C57.522 20.6536 57.3274 20.0929 57.3274 19.3608C57.3274 18.6287 57.5876 18.0828 58.1081 17.7231C58.6287 17.3592 59.4263 17.1582 60.5012 17.1201L61.7327 17.082V16.771C61.7327 16.0516 61.3645 15.6919 60.6282 15.6919C60.0611 15.6919 59.3946 15.8633 58.6287 16.2061L57.9875 14.8984ZM59.3142 19.3926C59.3142 19.9385 59.6273 20.2114 60.2537 20.2114C60.7065 20.2114 61.0662 20.0824 61.3328 19.8242C61.5994 19.5661 61.7327 19.2233 61.7327 18.7959V18.2119L60.9836 18.2373C60.4208 18.2542 60.0019 18.3558 59.7268 18.542C59.4517 18.7282 59.3142 19.0117 59.3142 19.3926ZM65.703 12.5752C65.703 11.9404 66.0542 11.623 66.7567 11.623C67.4592 11.623 67.8104 11.9383 67.8104 12.5688C67.8104 12.8735 67.7215 13.1084 67.5438 13.2734C67.3661 13.4385 67.1037 13.521 66.7567 13.521C66.0542 13.521 65.703 13.2057 65.703 12.5752ZM67.7215 21.5H65.7855V14.4033H67.7215V21.5ZM73.9199 14.27C74.7409 14.27 75.3651 14.4943 75.7925 14.9429C76.2241 15.3872 76.4399 16.0304 76.4399 16.8726V21.5H74.5039V17.355C74.5039 16.8387 74.4108 16.4536 74.2246 16.1997C74.0426 15.9458 73.7549 15.8188 73.3613 15.8188C72.8196 15.8188 72.4282 16.0008 72.187 16.3647C71.9458 16.7287 71.8252 17.3275 71.8252 18.1611V21.5H69.8891V14.4033H71.3681L71.6284 15.3174H71.7363C71.9479 14.9746 72.242 14.7144 72.6186 14.5366C72.9995 14.3589 73.4332 14.27 73.9199 14.27Z" fill="white"/>
</g>
<defs>
<clipPath id="clip0">
<path d="M0 16.5C0 7.3873 7.3873 0 16.5 0H77.5C86.6127 0 94 7.3873 94 16.5V16.5C94 25.6127 86.6127 33 77.5 33H16.5C7.3873 33 0 25.6127 0 16.5V16.5Z" fill="white"/>
</clipPath>
</defs>
</svg>
